<svg viewBox="0 0 568.2 92.401" xmlns="http://www.w3.org/2000/svg"><g id="svgGroup" stroke-linecap="round" fill-rule="evenodd" font-size="9pt" stroke="#000" stroke-width="0.25mm" fill="#000" style="stroke:#000;stroke-width:0.25mm;fill:#000"><path d="M 132.5 89.7 L 132.5 71 L 151.5 70.2 Q 153.332 70.059 153.873 69.223 A 1.481 1.481 0 0 0 154.1 68.4 A 1.39 1.39 0 0 0 154.041 68.023 Q 153.935 67.651 153.639 67.152 A 8.5 8.5 0 0 0 153.35 66.7 A 7.01 7.01 0 0 0 152.082 65.306 A 8.636 8.636 0 0 0 151.35 64.75 A 4.922 4.922 0 0 0 149.855 64.051 A 4.437 4.437 0 0 0 148.7 63.9 Q 148.422 63.9 147.716 64.072 A 17.38 17.38 0 0 0 147.6 64.1 A 12.401 12.401 0 0 1 146.249 64.556 A 10.631 10.631 0 0 1 145.65 64.7 Q 144.997 64.838 144.131 64.928 A 25.69 25.69 0 0 1 143.3 65 L 132.5 65.4 L 132.5 33.6 A 135.21 135.21 0 0 0 143.905 48.998 A 115.421 115.421 0 0 0 149.95 55.5 A 134.073 134.073 0 0 0 169.09 71.223 A 149.29 149.29 0 0 0 171.3 72.7 Q 171.8 73 172.25 73.25 Q 172.7 73.5 173.2 73.5 A 2.838 2.838 0 0 0 173.868 73.412 Q 174.504 73.258 175.304 72.83 A 10.481 10.481 0 0 0 175.45 72.75 A 15.289 15.289 0 0 0 177.129 71.675 A 12.984 12.984 0 0 0 177.85 71.1 A 13.036 13.036 0 0 0 178.207 70.784 Q 178.9 70.144 178.9 69.9 A 0.539 0.539 0 0 0 178.801 69.613 Q 178.576 69.261 177.834 68.799 A 10.141 10.141 0 0 0 177.5 68.6 Q 164.9 62.1 154.65 51.6 Q 144.4 41.1 135.1 28.8 L 165.9 27.1 A 8.575 8.575 0 0 0 166.639 27.002 Q 166.984 26.94 167.276 26.853 A 3.99 3.99 0 0 0 167.7 26.7 Q 168.4 26.4 168.4 25.8 A 1.034 1.034 0 0 0 168.326 25.443 Q 168.141 24.948 167.494 24.211 A 11.098 11.098 0 0 0 167.35 24.05 A 14.92 14.92 0 0 0 165.579 22.41 A 17.431 17.431 0 0 0 164.9 21.9 A 8.11 8.11 0 0 0 164.144 21.417 Q 163.339 20.967 162.69 20.909 A 2.122 2.122 0 0 0 162.5 20.9 A 1.342 1.342 0 0 0 162.309 20.916 Q 162.103 20.946 161.81 21.034 A 7.22 7.22 0 0 0 161.6 21.1 A 8.392 8.392 0 0 1 160.13 21.532 A 10.06 10.06 0 0 1 159.4 21.65 Q 158.2 21.8 157.2 21.9 L 132.5 23.3 L 132.5 3.7 A 2.236 2.236 0 0 0 131.728 1.973 A 3.102 3.102 0 0 0 131.45 1.75 Q 130.4 1 129.05 0.65 A 27.884 27.884 0 0 0 127.926 0.382 Q 127.241 0.234 126.65 0.15 L 125.6 0 Q 124.828 0 124.553 0.289 A 0.571 0.571 0 0 0 124.4 0.7 A 0.96 0.96 0 0 0 124.435 0.941 Q 124.501 1.191 124.688 1.538 A 6.598 6.598 0 0 0 124.9 1.9 Q 126.2 3.7 126.2 6.2 L 126.2 23.7 L 99.1 25.2 L 97.6 25.2 Q 96.5 25.2 95.45 25.1 A 17.269 17.269 0 0 1 94.204 24.937 A 14.106 14.106 0 0 1 93.5 24.8 A 0.746 0.746 0 0 0 93.355 24.747 Q 93.175 24.7 92.9 24.7 A 1.33 1.33 0 0 0 92.598 24.731 Q 92.186 24.828 92.115 25.222 A 1.002 1.002 0 0 0 92.1 25.4 A 0.728 0.728 0 0 0 92.11 25.507 Q 92.144 25.731 92.3 26.2 Q 93.359 28.969 94.816 29.881 A 2.978 2.978 0 0 0 95.5 30.2 Q 97.172 30.728 98.224 30.791 A 4.591 4.591 0 0 0 98.5 30.8 L 99.85 30.8 Q 100.6 30.8 101.5 30.7 L 122.9 29.5 A 150.098 150.098 0 0 1 113.444 44.244 A 133.041 133.041 0 0 1 110.6 48 A 165.252 165.252 0 0 1 102.311 57.777 A 135.697 135.697 0 0 1 97.3 62.95 Q 90.6 69.5 84.4 74.1 Q 82.899 75.32 82.806 76.099 A 0.853 0.853 0 0 0 82.8 76.2 Q 82.8 76.9 83.7 76.9 Q 84.547 76.9 88.364 74.906 A 101.974 101.974 0 0 0 88.85 74.65 A 41.482 41.482 0 0 0 91.697 72.98 Q 94.816 70.994 98.738 67.896 A 137.048 137.048 0 0 0 99.3 67.45 Q 105.5 62.5 112.55 54.55 Q 119.6 46.6 126.2 35.2 L 126.2 65.7 L 112.7 66.2 Q 112.3 66.2 111.9 66.25 Q 111.5 66.3 111 66.3 A 14.527 14.527 0 0 1 108.672 66.105 A 17.892 17.892 0 0 1 107.2 65.8 A 0.881 0.881 0 0 0 106.991 65.728 Q 106.892 65.707 106.779 65.702 A 1.684 1.684 0 0 0 106.7 65.7 A 0.576 0.576 0 0 0 106.542 65.72 Q 106.364 65.771 106.317 65.952 A 0.589 0.589 0 0 0 106.3 66.1 Q 106.3 66.5 106.4 66.7 A 6.521 6.521 0 0 0 106.564 67.244 Q 106.773 67.848 107.146 68.637 A 22.508 22.508 0 0 0 107.2 68.75 A 8.745 8.745 0 0 0 107.806 69.823 A 6.406 6.406 0 0 0 108.6 70.8 Q 109.466 71.666 111.605 71.782 A 12.817 12.817 0 0 0 112.3 71.8 L 114.1 71.8 L 126.2 71.3 L 126.2 81.4 Q 126.2 83 126 84.55 Q 125.8 86.1 125.5 87.6 Q 125.4 87.9 125.4 88.3 A 2.775 2.775 0 0 0 125.623 89.423 A 2.664 2.664 0 0 0 126.25 90.3 A 8.462 8.462 0 0 0 127.196 91.063 Q 127.672 91.397 128.237 91.711 A 14.145 14.145 0 0 0 128.4 91.8 Q 129.6 92.4 130.5 92.4 A 2.07 2.07 0 0 0 131.433 92.204 Q 132.298 91.773 132.462 90.395 A 5.905 5.905 0 0 0 132.5 89.7 Z M 543.5 23.3 L 544.1 22 A 2.091 2.091 0 0 0 544.536 21.383 A 1.879 1.879 0 0 0 544.7 20.6 Q 544.7 19.1 542.95 17.85 A 8.575 8.575 0 0 0 541.828 17.164 Q 541.207 16.851 540.62 16.712 A 3.974 3.974 0 0 0 539.7 16.6 Q 539.6 16.6 539.5 16.65 A 0.373 0.373 0 0 1 539.428 16.676 Q 539.338 16.7 539.2 16.7 A 12.87 12.87 0 0 0 538.754 16.797 Q 538.115 16.948 537.85 17.1 A 1.182 1.182 0 0 1 537.642 17.187 Q 537.172 17.344 536 17.5 Q 526.1 19 519.85 19.95 Q 513.6 20.9 510.05 21.45 Q 506.633 21.98 505.022 22.185 A 52.766 52.766 0 0 1 504.9 22.2 A 223.021 223.021 0 0 1 504.25 22.28 Q 503.431 22.38 502.987 22.427 A 18.144 18.144 0 0 1 502.75 22.45 Q 502.2 22.5 501.9 22.5 L 501.1 22.5 Q 500.619 22.404 499.581 22.122 A 72.206 72.206 0 0 1 499.5 22.1 Q 498.4 21.8 497.9 21.8 L 497.8 21.8 Q 496.7 21.9 496.7 22.9 Q 496.7 23.568 497.188 24.655 A 11.941 11.941 0 0 0 497.4 25.1 A 8.641 8.641 0 0 0 498.973 27.285 A 10.049 10.049 0 0 0 499.35 27.65 A 4.943 4.943 0 0 0 500.309 28.351 A 3.464 3.464 0 0 0 502 28.8 Q 502.5 28.8 503 28.75 Q 503.5 28.7 504.1 28.6 A 6.174 6.174 0 0 1 504.459 28.513 Q 505.369 28.314 507.817 27.919 A 258.633 258.633 0 0 1 508.25 27.85 Q 510.622 27.472 513.679 26.976 A 3264.639 3264.639 0 0 0 516.6 26.5 Q 521.5 25.7 526.6 24.85 A 701.844 701.844 0 0 1 530.852 24.154 Q 533.45 23.738 535.7 23.4 Q 530.9 33.1 524.65 41.65 Q 518.4 50.2 511.7 57.3 Q 505 64.4 498.75 69.75 A 248.818 248.818 0 0 1 494.266 73.502 Q 492.037 75.321 490.03 76.858 A 125.582 125.582 0 0 1 487.7 78.6 A 30.598 30.598 0 0 0 486.795 79.322 Q 486.372 79.674 486.02 79.998 A 14.109 14.109 0 0 0 485.6 80.4 A 5.732 5.732 0 0 0 485.288 80.736 Q 484.98 81.098 484.867 81.386 A 0.861 0.861 0 0 0 484.8 81.7 A 0.278 0.278 0 0 0 484.807 81.755 Q 484.833 81.876 484.95 82.15 Q 485.068 82.425 485.465 82.484 A 1.612 1.612 0 0 0 485.7 82.5 A 2.87 2.87 0 0 0 486.345 82.409 Q 487.709 82.084 490.6 80.6 A 50.444 50.444 0 0 0 493.083 79.227 Q 495.957 77.54 499.631 74.983 A 157.772 157.772 0 0 0 499.75 74.9 A 99.794 99.794 0 0 0 504.71 71.192 Q 507.194 69.22 509.856 66.892 A 174.704 174.704 0 0 0 511.65 65.3 A 139.025 139.025 0 0 0 518.985 58.174 A 177.413 177.413 0 0 0 524.8 51.8 Q 526.45 53.313 528.525 55.321 A 318.859 318.859 0 0 1 530.5 57.25 Q 533.8 60.5 537.45 64.35 Q 541.1 68.2 544.5 72.05 Q 547.9 75.9 550.6 79.3 A 25.938 25.938 0 0 0 551.119 79.941 Q 551.85 80.813 552.3 81.15 A 22.056 22.056 0 0 0 552.543 81.33 Q 552.868 81.566 553.032 81.663 A 1.193 1.193 0 0 0 553.1 81.7 A 0.67 0.67 0 0 0 553.232 81.747 Q 553.437 81.8 553.8 81.8 Q 555.14 81.8 556.321 80.562 A 6.553 6.553 0 0 0 556.6 80.25 Q 557.576 79.086 557.819 77.95 A 3.575 3.575 0 0 0 557.9 77.2 Q 557.9 76.7 557.4 75.8 A 7.142 7.142 0 0 0 557.081 75.288 Q 556.513 74.444 555.353 73.063 A 61.953 61.953 0 0 0 555.3 73 Q 553.7 71.1 550.45 67.85 Q 547.543 64.943 542.915 60.635 A 577.447 577.447 0 0 0 541.8 59.6 Q 536.432 54.63 528.396 47.485 A 1617.611 1617.611 0 0 0 528.3 47.4 Q 532.9 41.7 536.8 35.6 A 97.697 97.697 0 0 0 542.965 24.462 A 89.36 89.36 0 0 0 543.5 23.3 Z M 331.6 22.8 L 332.2 22.8 L 333 22.8 Q 333.4 22.8 333.8 22.7 Q 336.8 22.4 341.5 21.8 A 278.631 278.631 0 0 1 343.994 21.494 Q 347.95 21.025 353.2 20.5 A 155.319 155.319 0 0 1 343.001 38.155 A 137.979 137.979 0 0 1 339.85 42.65 A 187.402 187.402 0 0 1 330.614 54.319 A 153.269 153.269 0 0 1 324.95 60.55 A 182.162 182.162 0 0 1 318.516 66.931 Q 315.245 70.009 312.163 72.554 A 105.286 105.286 0 0 1 310.75 73.7 A 154.711 154.711 0 0 1 306.804 76.749 Q 302.967 79.609 300.015 81.357 A 44.628 44.628 0 0 1 299.6 81.6 A 17.105 17.105 0 0 0 298.58 82.186 Q 296.6 83.425 296.6 84.4 A 1.412 1.412 0 0 0 296.605 84.53 Q 296.617 84.657 296.654 84.734 A 0.241 0.241 0 0 0 296.7 84.8 L 296.95 85.1 Q 297.175 85.37 297.766 85.397 A 2.967 2.967 0 0 0 297.9 85.4 Q 299.94 85.4 304.605 83.034 A 63.91 63.91 0 0 0 305.35 82.65 Q 309.129 80.671 313.891 77.319 A 142.543 142.543 0 0 0 317.75 74.5 Q 324.844 69.142 332.627 61.373 A 198.748 198.748 0 0 0 332.75 61.25 A 142.735 142.735 0 0 0 342.859 49.956 A 172.023 172.023 0 0 0 348 43.25 A 127.977 127.977 0 0 0 358.903 25.271 A 145.925 145.925 0 0 0 361.1 20.7 A 1.594 1.594 0 0 1 361.25 20.463 Q 361.424 20.231 361.731 19.939 A 9.309 9.309 0 0 1 362.05 19.65 Q 362.8 19 362.8 18 A 2.418 2.418 0 0 0 362.215 16.439 Q 361.916 16.073 361.465 15.74 A 6.213 6.213 0 0 0 360.95 15.4 A 11.2 11.2 0 0 0 359.9 14.844 Q 358.797 14.338 357.93 14.303 A 3.173 3.173 0 0 0 357.8 14.3 Q 357.6 14.3 355.65 14.5 Q 354.309 14.638 352.543 14.846 A 361.069 361.069 0 0 0 350.85 15.05 Q 348 15.4 344.9 15.75 Q 341.8 16.1 339.15 16.4 Q 337.121 16.63 335.766 16.801 A 111.796 111.796 0 0 0 335 16.9 A 1.707 1.707 0 0 0 334.843 16.393 Q 334.621 15.92 334.102 15.33 A 10.367 10.367 0 0 0 333.65 14.85 A 7.922 7.922 0 0 0 332.717 14.064 Q 331.525 13.194 329.6 12.3 Q 329.324 12.208 328.708 11.989 A 152.466 152.466 0 0 1 328.6 11.95 A 4.65 4.65 0 0 0 327.976 11.773 Q 327.623 11.7 327.3 11.7 Q 326.7 11.7 326.5 11.9 A 1.407 1.407 0 0 0 326.176 12.258 A 1.198 1.198 0 0 0 326 12.9 A 1.937 1.937 0 0 0 326.08 13.433 Q 326.19 13.816 326.45 14.25 A 3.173 3.173 0 0 1 326.823 15.146 A 2.802 2.802 0 0 1 326.9 15.8 L 326.9 15.9 A 10.303 10.303 0 0 1 326.811 16.533 Q 326.758 16.837 326.69 17.096 A 4.858 4.858 0 0 1 326.6 17.4 A 9.112 9.112 0 0 1 326.137 18.525 A 9.995 9.995 0 0 1 326.1 18.6 A 135.049 135.049 0 0 1 320.668 26.387 A 106.172 106.172 0 0 1 316.4 31.7 Q 312.648 36.064 309.424 39.314 A 90.823 90.823 0 0 1 307.5 41.2 Q 303.5 45 301.2 47 A 9.129 9.129 0 0 0 300.525 47.626 A 11.717 11.717 0 0 0 300 48.2 Q 299.624 48.639 299.484 49.038 A 1.39 1.39 0 0 0 299.4 49.5 A 1.353 1.353 0 0 0 299.442 49.847 A 0.985 0.985 0 0 0 299.7 50.3 Q 299.923 50.597 300.42 50.673 A 2.504 2.504 0 0 0 300.8 50.7 Q 301.668 50.7 302.66 50.14 A 6.972 6.972 0 0 0 303.2 49.8 A 141.755 141.755 0 0 0 304.319 48.966 Q 306.25 47.513 309.7 44.85 A 105.589 105.589 0 0 0 313.333 41.906 Q 315.32 40.227 317.506 38.242 A 209.252 209.252 0 0 0 320.2 35.75 A 90.95 90.95 0 0 0 327.419 28.09 A 110.654 110.654 0 0 0 331.6 22.8 Z M 223.9 51.7 L 224.8 51.7 L 275.5 49.3 A 7.922 7.922 0 0 0 276.384 49.186 Q 277.277 49.015 277.705 48.646 A 1.071 1.071 0 0 0 278.1 47.8 A 1.463 1.463 0 0 0 278.039 47.406 Q 277.893 46.889 277.4 46.15 A 8.448 8.448 0 0 0 275.846 44.413 A 9.57 9.57 0 0 0 275.65 44.25 A 4.31 4.31 0 0 0 274.83 43.72 A 3.008 3.008 0 0 0 273.5 43.4 A 4.142 4.142 0 0 0 273.147 43.416 A 5.3 5.3 0 0 0 272.85 43.45 A 6.733 6.733 0 0 0 272.44 43.522 A 8.476 8.476 0 0 0 272.1 43.6 Q 271 43.8 270 43.95 Q 269 44.1 267.9 44.2 L 262 44.5 L 264.8 30.1 Q 264.9 29.6 265.15 29.15 A 1.969 1.969 0 0 0 265.373 28.478 A 2.562 2.562 0 0 0 265.4 28.1 A 2.413 2.413 0 0 0 264.882 26.625 Q 264.608 26.261 264.192 25.924 A 5.919 5.919 0 0 0 263.75 25.6 A 10.236 10.236 0 0 0 262.877 25.075 Q 261.795 24.5 261 24.5 A 1.906 1.906 0 0 0 260.802 24.511 Q 260.683 24.523 260.55 24.55 A 2.524 2.524 0 0 1 260.253 24.59 A 3.227 3.227 0 0 1 260 24.6 L 245.6 25.5 L 248 15 L 267.1 13.9 Q 269.548 13.731 269.93 12.85 A 0.871 0.871 0 0 0 270 12.5 Q 270 11.847 269.5 11.116 A 5.328 5.328 0 0 0 269.05 10.55 Q 268.1 9.5 266.9 8.75 Q 265.958 8.162 265.325 8.035 A 1.661 1.661 0 0 0 265 8 A 2.227 2.227 0 0 0 264.861 8.005 Q 264.691 8.016 264.45 8.05 A 6.733 6.733 0 0 0 264.04 8.122 A 8.476 8.476 0 0 0 263.7 8.2 A 15.76 15.76 0 0 1 262.69 8.451 A 18.624 18.624 0 0 1 262.2 8.55 A 15.36 15.36 0 0 1 261.558 8.656 Q 260.988 8.738 260.3 8.8 L 229.2 10.7 L 227.8 10.7 Q 226.1 10.7 224.4 10.4 Q 224.1 10.3 223.7 10.3 A 0.917 0.917 0 0 0 223.518 10.317 Q 223.236 10.374 223.204 10.631 A 0.56 0.56 0 0 0 223.2 10.7 Q 223.2 11.1 223.3 11.3 Q 223.9 13.2 225.15 14.7 A 3.986 3.986 0 0 0 227.249 16.002 Q 227.899 16.175 228.676 16.197 A 8.055 8.055 0 0 0 228.9 16.2 Q 229.13 16.2 229.418 16.171 A 7.954 7.954 0 0 0 229.6 16.15 Q 230 16.1 230.4 16.1 L 241.7 15.4 L 239.2 25.9 L 232 26.3 Q 231.4 26.3 230.8 26.35 Q 230.2 26.4 229.7 26.4 A 18.639 18.639 0 0 1 226.929 26.186 A 21.004 21.004 0 0 1 226.4 26.1 A 1.359 1.359 0 0 1 226.235 26.09 Q 226.134 26.078 226.05 26.05 Q 225.909 26.003 225.725 26 A 1.564 1.564 0 0 0 225.7 26 Q 225.318 26 225.301 26.273 A 0.421 0.421 0 0 0 225.3 26.3 Q 225.3 26.7 225.4 26.9 A 15.461 15.461 0 0 0 226.098 28.648 A 12.745 12.745 0 0 0 226.6 29.6 A 10.785 10.785 0 0 0 227.169 30.32 Q 227.67 30.898 228.15 31.25 Q 228.9 31.8 230.7 31.8 L 231.6 31.8 Q 231.972 31.8 232.43 31.714 A 6.465 6.465 0 0 0 232.5 31.7 L 237.9 31.4 L 234.4 45.8 L 224.4 46.3 Q 223.9 46.3 223.4 46.35 Q 222.9 46.4 222.4 46.4 A 13.654 13.654 0 0 1 221.02 46.334 Q 220.072 46.238 219.3 46 A 1.89 1.89 0 0 0 218.709 45.9 A 1.801 1.801 0 0 0 218.7 45.9 A 0.72 0.72 0 0 0 218.502 45.925 Q 218.2 46.011 218.2 46.4 A 1.819 1.819 0 0 0 218.228 46.694 Q 218.313 47.2 218.65 48.1 Q 219.072 49.225 220.065 50.35 A 10.786 10.786 0 0 0 220.2 50.5 Q 221.299 51.699 223.894 51.7 A 7.823 7.823 0 0 0 223.9 51.7 Z M 428.5 81.7 L 428.5 82 A 3.233 3.233 0 0 1 428.546 82.157 Q 428.644 82.514 428.854 83.429 A 134.1 134.1 0 0 1 428.95 83.85 Q 429.3 85.4 430.2 86.85 Q 431.1 88.3 432.6 88.3 A 2.717 2.717 0 0 0 432.931 88.281 Q 433.106 88.259 433.257 88.214 A 1.615 1.615 0 0 0 433.3 88.2 A 1.69 1.69 0 0 0 434.204 87.701 Q 434.664 87.238 435.005 86.368 A 6.995 6.995 0 0 0 435.05 86.25 A 10.345 10.345 0 0 0 435.63 83.921 A 9.083 9.083 0 0 0 435.7 82.8 L 435.7 79.35 Q 435.7 76.5 435.75 72.25 Q 435.8 68 435.85 63.3 Q 435.9 58.6 435.95 54.3 Q 435.984 51.344 435.995 49.002 A 437.754 437.754 0 0 0 436 47 L 436 43.3 A 35.681 35.681 0 0 0 435.982 42.135 Q 435.929 40.515 435.715 39.753 A 3.078 3.078 0 0 0 435.7 39.7 A 1.874 1.874 0 0 0 435.359 39.081 Q 434.95 38.566 434.114 38.025 A 11.629 11.629 0 0 0 433.4 37.6 Q 438.6 33.6 443.6 28.9 Q 448.6 24.2 453 18.8 Q 454.319 17.115 454.671 15.966 A 2.631 2.631 0 0 0 454.8 15.2 Q 454.8 13.8 453.15 12.6 Q 451.5 11.4 449.6 10.65 A 22.499 22.499 0 0 0 448.77 10.34 Q 447.588 9.927 446.976 9.902 A 1.876 1.876 0 0 0 446.9 9.9 A 2.033 2.033 0 0 0 446.429 9.951 Q 446.065 10.038 445.818 10.272 A 1.264 1.264 0 0 0 445.7 10.4 Q 445.5 10.6 445.5 11 A 1.789 1.789 0 0 0 445.64 11.684 A 2.346 2.346 0 0 0 445.8 12 A 1.942 1.942 0 0 1 446.014 12.53 Q 446.1 12.872 446.1 13.3 L 446.1 13.6 Q 445.9 15.3 443.25 19.15 A 33.165 33.165 0 0 1 441.281 21.702 Q 439.065 24.329 435.613 27.609 A 128.595 128.595 0 0 1 434.45 28.7 Q 430.27 32.574 424.057 37.165 A 226.644 226.644 0 0 1 417.75 41.65 A 195.081 195.081 0 0 1 409.085 47.249 Q 404.18 50.25 398.459 53.426 A 392.854 392.854 0 0 1 391.3 57.3 Q 388.463 58.669 388.401 60.039 A 1.353 1.353 0 0 0 388.4 60.1 A 1.412 1.412 0 0 0 388.405 60.23 Q 388.417 60.357 388.454 60.434 A 0.241 0.241 0 0 0 388.5 60.5 A 0.776 0.776 0 0 0 388.789 60.728 Q 389.06 60.86 389.508 60.891 A 4.238 4.238 0 0 0 389.8 60.9 Q 391 60.9 394.8 59.5 A 75.144 75.144 0 0 0 397.757 58.332 Q 400.595 57.148 404.15 55.45 Q 409.7 52.8 416.15 49.1 A 159.854 159.854 0 0 0 427.476 41.936 A 177.34 177.34 0 0 0 429.1 40.8 Q 429.3 41.2 429.3 41.65 L 429.3 42.6 L 429.3 45.6 Q 429.3 48.2 429.25 52.15 Q 429.2 56.1 429.15 60.5 Q 429.1 64.9 429.05 68.9 Q 429.001 72.852 429 75.536 A 289.323 289.323 0 0 0 429 75.6 L 429 78.9 Q 429 79.255 428.803 79.846 A 7.545 7.545 0 0 1 428.75 80 A 3.95 3.95 0 0 0 428.579 80.67 Q 428.522 81.006 428.506 81.391 A 7.448 7.448 0 0 0 428.5 81.7 Z M 10.8 87.6 L 10.7 83.5 L 54.5 82 Q 55.9 81.9 56.8 81.75 Q 57.637 81.611 57.696 80.909 A 1.308 1.308 0 0 0 57.7 80.8 A 1.636 1.636 0 0 0 57.649 80.419 Q 57.559 80.05 57.315 79.55 A 9.521 9.521 0 0 0 57.05 79.05 A 13.223 13.223 0 0 0 56.589 78.301 Q 56.103 77.562 55.371 76.606 A 51.539 51.539 0 0 0 54.9 76 L 57.7 16.5 A 5.693 5.693 0 0 1 57.994 15.516 A 6.24 6.24 0 0 1 58 15.5 Q 58.2 15 58.2 14.4 A 2.881 2.881 0 0 0 57.174 12.178 A 4.704 4.704 0 0 0 56.45 11.65 Q 54.7 10.6 53.3 10.6 L 52.6 10.6 L 8.5 12.9 Q 5.6 11.5 3.8 10.95 A 21.806 21.806 0 0 0 2.956 10.709 Q 1.775 10.4 1.1 10.4 A 2.228 2.228 0 0 0 0.705 10.432 Q 0 10.559 0 11.2 Q 0 11.757 0.602 13.001 A 16.987 16.987 0 0 0 0.7 13.2 Q 1.4 14.5 1.8 16.3 A 24.036 24.036 0 0 1 2.169 18.367 A 19.48 19.48 0 0 1 2.3 19.7 L 3.9 78.8 L 3.9 80.8 A 36.354 36.354 0 0 1 3.805 83.485 A 28.396 28.396 0 0 1 3.6 85.4 A 0.595 0.595 0 0 1 3.596 85.464 Q 3.586 85.556 3.55 85.7 Q 3.5 85.9 3.5 86.1 Q 3.5 87.4 4.65 88.45 A 8.544 8.544 0 0 0 6.651 89.826 A 7.914 7.914 0 0 0 7.15 90.05 Q 8.5 90.6 9.2 90.6 Q 10.742 90.6 10.798 88.278 A 7.398 7.398 0 0 0 10.8 88.1 L 10.8 87.6 Z M 236 88.7 L 235.7 85.2 L 263.2 84.5 Q 264.273 84.411 264.987 84.321 A 21.1 21.1 0 0 0 265.15 84.3 Q 265.788 84.215 265.883 83.696 A 1.084 1.084 0 0 0 265.9 83.5 Q 265.9 83.121 265.583 82.424 A 9.567 9.567 0 0 0 265.35 81.95 A 9.895 9.895 0 0 0 264.973 81.3 Q 264.406 80.394 263.4 79.1 L 265.7 64.8 A 3.034 3.034 0 0 1 266.087 63.754 A 3.507 3.507 0 0 1 266.15 63.65 A 2.249 2.249 0 0 0 266.497 62.53 A 2.719 2.719 0 0 0 266.5 62.4 A 2.539 2.539 0 0 0 265.954 60.843 Q 265.58 60.347 264.95 59.9 A 6.467 6.467 0 0 0 263.609 59.158 A 4.843 4.843 0 0 0 261.8 58.8 L 260.8 58.8 L 234.3 60.1 A 97.191 97.191 0 0 0 232.446 59.42 Q 228.719 58.1 227.5 58.1 Q 226.633 58.1 226.601 58.657 A 0.758 0.758 0 0 0 226.6 58.7 Q 226.6 59.047 226.977 59.998 A 19.001 19.001 0 0 0 227.1 60.3 Q 227.6 61.5 227.85 62.75 A 15.236 15.236 0 0 1 228.013 63.756 Q 228.137 64.698 228.2 65.9 L 229.3 80.7 Q 229.3 81.2 229.35 81.8 Q 229.4 82.4 229.4 82.9 Q 229.4 84.7 229.1 86.4 A 2.608 2.608 0 0 0 229.047 86.578 Q 229 86.763 229 86.9 L 229 87.3 A 2.234 2.234 0 0 0 229.62 88.844 A 3.564 3.564 0 0 0 230.2 89.35 A 10.099 10.099 0 0 0 232.296 90.5 A 9.282 9.282 0 0 0 232.7 90.65 A 30.536 30.536 0 0 0 233.152 90.803 Q 234.037 91.094 234.289 91.1 A 0.436 0.436 0 0 0 234.3 91.1 Q 235.85 91.1 235.987 89.355 A 4.539 4.539 0 0 0 236 89 L 236 88.7 Z M 8.8 18.9 L 50.8 16.7 L 49.8 42.3 L 9.5 44.3 L 8.8 18.9 Z M 9.7 50.2 L 49.6 48.4 L 48.5 76.3 L 10.5 77.5 L 9.7 50.2 Z M 198.4 86.8 L 198.3 85.5 L 215.2 84.9 Q 216.042 84.823 216.709 84.718 A 14.319 14.319 0 0 0 217.1 84.65 A 1.431 1.431 0 0 0 217.436 84.547 Q 217.865 84.349 217.897 83.879 A 1.146 1.146 0 0 0 217.9 83.8 A 1.992 1.992 0 0 0 217.782 83.194 Q 217.379 81.975 215.6 79.5 L 217.2 65.7 Q 217.3 65.2 217.55 64.75 Q 217.8 64.3 217.8 63.8 A 2.362 2.362 0 0 0 217.249 62.298 Q 216.972 61.951 216.556 61.633 A 5.735 5.735 0 0 0 216.15 61.35 A 10.312 10.312 0 0 0 215.265 60.842 Q 214.191 60.3 213.4 60.3 L 212.5 60.3 L 196.9 61.1 Q 194.427 60.193 192.804 59.694 A 34.34 34.34 0 0 0 192.15 59.5 A 24.052 24.052 0 0 0 191.334 59.281 Q 190.2 59 189.6 59 Q 188.733 59 188.701 59.557 A 0.758 0.758 0 0 0 188.7 59.6 A 1.414 1.414 0 0 0 188.753 59.956 Q 188.899 60.509 189.448 61.415 A 14.336 14.336 0 0 0 189.5 61.5 Q 190.44 63.145 190.828 65.587 A 20.516 20.516 0 0 1 191 67 L 192 80 L 192 81.2 A 35.122 35.122 0 0 1 191.953 82.991 A 38.187 38.187 0 0 1 191.95 83.05 Q 191.9 84 191.8 85 L 191.8 85.6 A 3.516 3.516 0 0 0 191.933 86.595 A 2.541 2.541 0 0 0 192.95 88 Q 194.1 88.8 195.25 89.05 Q 196.343 89.288 196.488 89.299 A 0.158 0.158 0 0 0 196.5 89.3 A 2.331 2.331 0 0 0 197.303 89.173 Q 198.329 88.798 198.395 87.311 A 4.731 4.731 0 0 0 198.4 87.1 L 198.4 86.8 Z M 190.7 27.9 L 221.3 25.9 Q 222.154 25.815 222.644 25.528 A 1.231 1.231 0 0 0 223.3 24.4 Q 223.3 23.508 222.318 22.469 A 6.711 6.711 0 0 0 222.3 22.45 Q 221.3 21.4 220.1 20.65 Q 218.9 19.9 218.1 19.9 Q 217.877 19.9 217.709 19.928 A 1.367 1.367 0 0 0 217.6 19.95 Q 217.4 20 217.2 20.1 Q 216.2 20.5 215.1 20.7 Q 214 20.9 213.1 21.1 L 188.7 22.5 Q 188.3 22.5 187.9 22.55 Q 187.503 22.6 187.008 22.6 A 10.873 10.873 0 0 1 187 22.6 A 12.865 12.865 0 0 1 184.66 22.393 A 11.306 11.306 0 0 1 183.8 22.2 Q 183.5 22.1 183.1 22.1 A 0.864 0.864 0 0 0 182.863 22.13 Q 182.5 22.234 182.5 22.7 Q 182.5 23.1 183 24.4 Q 183.5 25.7 185.6 27.5 A 1.187 1.187 0 0 0 185.976 27.742 Q 186.566 27.995 187.75 28 A 11.373 11.373 0 0 0 187.8 28 L 189.1 28 Q 189.702 28 190.451 27.926 A 20.195 20.195 0 0 0 190.7 27.9 Z M 234.3 65.5 L 259.1 64.3 L 257.3 79.2 L 235.3 79.8 L 234.3 65.5 Z M 197 40.3 L 215.5 39.1 A 3.606 3.606 0 0 0 216.806 38.684 A 3.468 3.468 0 0 0 216.95 38.6 A 1.534 1.534 0 0 0 217.318 38.292 A 1.181 1.181 0 0 0 217.6 37.5 A 2.095 2.095 0 0 0 217.422 36.679 Q 217.29 36.37 217.063 36.05 A 5.061 5.061 0 0 0 216.7 35.6 A 10.464 10.464 0 0 0 215.01 34.08 A 9.634 9.634 0 0 0 214.75 33.9 A 6.514 6.514 0 0 0 214.194 33.566 Q 213.622 33.262 213.176 33.211 A 1.541 1.541 0 0 0 213 33.2 Q 212.8 33.2 212.6 33.25 Q 212.4 33.3 212.2 33.4 Q 210.4 33.9 208.6 34.1 L 195 35 L 193.9 35 A 17.557 17.557 0 0 1 191.631 34.859 A 14.335 14.335 0 0 1 190.2 34.6 Q 190.1 34.6 190 34.55 A 0.482 0.482 0 0 0 189.888 34.51 A 0.408 0.408 0 0 0 189.8 34.5 A 0.589 0.589 0 0 0 189.584 34.536 Q 189.327 34.637 189.303 35.017 A 1.292 1.292 0 0 0 189.3 35.1 A 2.628 2.628 0 0 0 189.408 35.81 Q 189.628 36.592 190.3 37.6 Q 191.227 38.991 191.983 39.694 A 5.147 5.147 0 0 0 192.1 39.8 Q 192.576 40.276 193.413 40.299 A 3.137 3.137 0 0 0 193.5 40.3 Q 193.806 40.377 194.404 40.395 A 13.216 13.216 0 0 0 194.8 40.4 L 195.85 40.4 A 6.722 6.722 0 0 0 196.685 40.346 A 7.842 7.842 0 0 0 197 40.3 Z M 194.2 52.8 L 197.1 52.8 L 215.3 51.7 Q 216.1 51.6 216.7 51.2 Q 217.3 50.8 217.3 50.1 Q 217.3 49.616 216.812 48.84 A 7.93 7.93 0 0 0 216.55 48.45 Q 215.8 47.4 214.75 46.6 A 5.152 5.152 0 0 0 214.108 46.178 Q 213.753 45.983 213.416 45.889 A 2.276 2.276 0 0 0 212.8 45.8 A 1.342 1.342 0 0 0 212.609 45.816 Q 212.403 45.846 212.11 45.934 A 7.22 7.22 0 0 0 211.9 46 A 8.192 8.192 0 0 1 210.849 46.387 A 6.727 6.727 0 0 1 210.15 46.55 Q 209.3 46.7 208.4 46.8 L 195.1 47.5 L 194 47.5 A 17.557 17.557 0 0 1 191.731 47.359 A 14.335 14.335 0 0 1 190.3 47.1 A 0.881 0.881 0 0 0 190.091 47.028 Q 189.992 47.007 189.879 47.002 A 1.684 1.684 0 0 0 189.8 47 A 0.72 0.72 0 0 0 189.602 47.025 Q 189.3 47.111 189.3 47.5 Q 189.3 47.9 189.4 48.1 A 13.763 13.763 0 0 0 189.929 49.257 A 17.788 17.788 0 0 0 190.45 50.2 A 8.408 8.408 0 0 0 191.438 51.536 A 10.636 10.636 0 0 0 192.2 52.3 A 3 3 0 0 0 192.598 52.46 Q 193.191 52.656 194.2 52.8 Z M 244.2 31 L 258.3 30.1 L 255.8 44.8 L 240.8 45.5 L 244.2 31 Z M 196.9 66.6 L 210.9 65.9 L 209.8 79.8 L 197.9 80.1 L 196.9 66.6 Z M 210.4 18.6 A 1.864 1.864 0 0 0 211.49 18.231 Q 212.073 17.82 212.6 16.95 Q 213.435 15.572 213.573 14.648 A 2.362 2.362 0 0 0 213.6 14.3 Q 213.6 13.286 212.099 12.271 A 9.39 9.39 0 0 0 211.5 11.9 A 177.315 177.315 0 0 0 208.322 10.231 Q 204.869 8.466 202.324 7.392 A 44.175 44.175 0 0 0 200.85 6.8 Q 196.9 5.3 196.3 5.3 A 1.942 1.942 0 0 0 194.926 5.869 A 3.212 3.212 0 0 0 194.45 6.45 Q 193.7 7.6 193.7 8.6 Q 193.7 9.3 194.25 9.7 A 6.649 6.649 0 0 0 194.638 9.96 Q 195.081 10.237 195.71 10.555 A 21.748 21.748 0 0 0 195.8 10.6 A 62.894 62.894 0 0 1 199.628 12.42 A 74.838 74.838 0 0 1 202 13.7 Q 205.2 15.5 208.3 17.7 A 9.321 9.321 0 0 0 208.923 18.083 A 7.143 7.143 0 0 0 209.45 18.35 A 3.596 3.596 0 0 0 209.803 18.49 Q 209.979 18.548 210.136 18.576 A 1.538 1.538 0 0 0 210.4 18.6 Z M 560.6 27.3 A 1.984 1.984 0 0 0 560.55 26.846 A 1.45 1.45 0 0 0 560.3 26.3 Q 559.8 25.4 558.35 23.75 A 86.975 86.975 0 0 0 556.42 21.629 A 106.132 106.132 0 0 0 555.15 20.3 A 39.298 39.298 0 0 0 553.451 18.649 A 28.58 28.58 0 0 0 551.8 17.25 A 13.23 13.23 0 0 0 551.138 16.763 Q 550.094 16.047 549.479 16.003 A 1.102 1.102 0 0 0 549.4 16 A 2.276 2.276 0 0 0 547.817 16.635 A 3.105 3.105 0 0 0 547.65 16.8 A 2.89 2.89 0 0 0 547.124 17.566 A 2.442 2.442 0 0 0 546.9 18.6 A 1.908 1.908 0 0 0 547.462 19.961 A 2.504 2.504 0 0 0 547.5 20 Q 548.248 20.68 549.203 21.66 A 73.768 73.768 0 0 1 550.15 22.65 Q 551.7 24.3 553.25 26.05 A 23.347 23.347 0 0 1 554.307 27.327 Q 554.827 28.007 555.222 28.644 A 11.839 11.839 0 0 1 555.6 29.3 A 2.526 2.526 0 0 0 556.018 29.874 A 1.735 1.735 0 0 0 557.3 30.4 Q 557.928 30.4 558.701 30.011 A 6.67 6.67 0 0 0 559.399 29.601 A 2.65 2.65 0 0 0 560.276 28.67 Q 560.554 28.162 560.594 27.516 A 3.567 3.567 0 0 0 560.6 27.3 Z M 568.2 21.7 A 0.94 0.94 0 0 0 568.126 21.372 Q 567.923 20.847 567.166 19.902 A 21.157 21.157 0 0 0 566.75 19.4 A 40.529 40.529 0 0 0 565.259 17.751 Q 564.339 16.786 563.25 15.75 Q 561.2 13.8 559.4 12.35 Q 557.6 10.9 556.9 10.9 A 2.381 2.381 0 0 0 555.407 11.428 A 3.272 3.272 0 0 0 555.1 11.7 A 3.24 3.24 0 0 0 554.645 12.262 Q 554.361 12.713 554.311 13.194 A 1.996 1.996 0 0 0 554.3 13.4 A 1.878 1.878 0 0 0 554.895 14.804 A 2.387 2.387 0 0 0 555 14.9 A 23.507 23.507 0 0 1 556.439 16.157 Q 557.169 16.845 557.932 17.664 A 39.553 39.553 0 0 1 558.15 17.9 A 128.894 128.894 0 0 1 560.115 20.091 A 107.428 107.428 0 0 1 561.2 21.35 Q 562.354 22.71 563.032 23.628 A 18.036 18.036 0 0 1 563.3 24 A 2.262 2.262 0 0 0 564.947 24.796 A 2.914 2.914 0 0 0 565.1 24.8 Q 566.2 24.8 567.2 23.95 A 2.766 2.766 0 0 0 568.193 21.926 A 3.739 3.739 0 0 0 568.2 21.7 Z" vector-effect="non-scaling-stroke"/></g></svg>